<?xml version="1.0" encoding="UTF-8" standalone="no"?>
<!-- Created with Inkscape (http://www.inkscape.org/) -->

<svg
   width="100mm"
   height="100mm"
   viewBox="0 0 100 99.999998"
   version="1.1"
   id="svg1"
   xml:space="preserve"
   inkscape:version="1.4 (e7c3feb100, 2024-10-09)"
   sodipodi:docname="farmbot.svg"
   inkscape:export-filename="farmbot.png"
   inkscape:export-xdpi="127"
   inkscape:export-ydpi="127"
   xmlns:inkscape="http://www.inkscape.org/namespaces/inkscape"
   xmlns:sodipodi="http://sodipodi.sourceforge.net/DTD/sodipodi-0.dtd"
   xmlns="http://www.w3.org/2000/svg"
   xmlns:svg="http://www.w3.org/2000/svg"><sodipodi:namedview
     id="namedview1"
     pagecolor="#ffffff"
     bordercolor="#000000"
     borderopacity="0.25"
     inkscape:showpageshadow="2"
     inkscape:pageopacity="0.0"
     inkscape:pagecheckerboard="0"
     inkscape:deskcolor="#d1d1d1"
     inkscape:document-units="mm"
     inkscape:zoom="1.5707826"
     inkscape:cx="174.43534"
     inkscape:cy="304.94354"
     inkscape:window-width="3412"
     inkscape:window-height="2116"
     inkscape:window-x="0"
     inkscape:window-y="0"
     inkscape:window-maximized="1"
     inkscape:current-layer="layer1"><inkscape:page
       x="0"
       y="0"
       width="100"
       height="100"
       id="page2"
       margin="0"
       bleed="0" /></sodipodi:namedview><defs
     id="defs1" /><g
     inkscape:label="Layer 1"
     inkscape:groupmode="layer"
     id="layer1"
     transform="translate(-99.659673,-89.572937)"><path
       id="rect1-2"
       style="fill:#09345f;fill-opacity:1;fill-rule:evenodd;stroke-width:1.86357;-inkscape-stroke:none"
       d="M 149.11764 109.41255 C 148.70428 109.41255 146.27456 112.53716 143.719 116.35528 L 140.21172 121.59372 L 120.42946 121.59372 C 110.83789 121.59372 103.11631 129.3153 103.11631 138.90688 L 103.11631 157.01947 C 103.11631 163.99892 107.21439 169.97163 113.13689 172.71618 L 113.13689 170.60313 C 113.13689 166.8267 116.17709 163.78598 119.95352 163.78598 L 127.89102 163.78598 C 131.66746 163.78598 134.70766 166.8267 134.70766 170.60313 L 134.70766 174.33262 L 163.52761 174.33262 L 163.52761 170.60313 C 163.52761 166.8267 166.56781 163.78598 170.34425 163.78598 L 178.28175 163.78598 C 182.05818 163.78598 185.09839 166.8267 185.09839 170.60313 L 185.09839 172.71618 C 191.02088 169.97163 195.11896 163.99892 195.11896 157.01947 L 195.11896 138.90688 C 195.11896 129.3153 187.39739 121.59372 177.80581 121.59372 L 158.02304 121.59372 L 154.51627 116.35528 C 151.96076 112.53716 149.53099 109.41255 149.11764 109.41255 z M 124.36049 135.44456 L 173.87426 135.44456 C 178.42784 135.44456 182.09392 139.11011 182.09392 143.66369 L 182.09392 152.26265 C 182.09392 156.81623 178.42784 160.4823 173.87426 160.4823 L 124.36049 160.4823 C 119.80691 160.4823 116.14084 156.81623 116.14084 152.26265 L 116.14084 143.66369 C 116.14084 139.11011 119.80691 135.44456 124.36049 135.44456 z M 121.35499 166.52896 C 117.98391 166.52896 115.27009 169.2433 115.27009 172.61438 L 115.27009 182.69232 C 115.27009 186.06339 117.98391 188.77722 121.35499 188.77722 L 126.48904 188.77722 C 129.86012 188.77722 132.57446 186.06339 132.57446 182.69232 L 132.57446 172.61438 C 132.57446 169.2433 129.86012 166.52896 126.48904 166.52896 L 121.35499 166.52896 z M 171.74571 166.52896 C 168.37464 166.52896 165.66081 169.2433 165.66081 172.61438 L 165.66081 182.69232 C 165.66081 186.06339 168.37464 188.77722 171.74571 188.77722 L 176.87977 188.77722 C 180.25084 188.77722 182.96467 186.06339 182.96467 182.69232 L 182.96467 172.61438 C 182.96467 169.2433 180.25084 166.52896 176.87977 166.52896 L 171.74571 166.52896 z " /><path
       id="path1-9"
       style="fill:#1b8a4c;fill-opacity:1;stroke-width:4.52247"
       d="M 108.12427 90.500529 C 107.08987 90.510711 106.90214 91.15985 106.90833 92.856974 C 106.92841 97.707007 112.36854 107.64778 117.16765 111.60363 C 119.69598 113.68767 123.93859 116.16482 126.5955 117.10821 C 134.28682 119.83911 135.79766 119.58578 134.86734 115.72173 C 131.81395 103.03982 122.86469 94.04312 110.12105 90.844694 C 109.23965 90.623474 108.59446 90.495901 108.12427 90.500529 z M 190.111 90.500529 C 189.64085 90.495901 188.99555 90.623474 188.11422 90.844694 C 175.37139 94.04312 166.42269 103.03982 163.36948 115.72173 C 162.43925 119.58578 163.94994 119.83911 171.64081 117.10821 C 174.29753 116.16482 178.53994 113.68767 181.06814 111.60363 C 185.86693 107.64778 191.30692 97.707007 191.32695 92.856974 C 191.33313 91.15985 191.14533 90.510711 190.111 90.500529 z M 134.75882 140.30782 A 8.4791775 8.4791775 0 0 0 126.27975 148.78689 A 8.4791775 8.4791775 0 0 0 134.75882 157.26596 A 8.4791775 8.4791775 0 0 0 143.23789 148.78689 A 8.4791775 8.4791775 0 0 0 134.75882 140.30782 z M 163.47645 140.30782 A 8.4791775 8.4791775 0 0 0 154.99686 148.78689 A 8.4791775 8.4791775 0 0 0 163.47645 157.26596 A 8.4791775 8.4791775 0 0 0 171.95552 148.78689 A 8.4791775 8.4791775 0 0 0 163.47645 140.30782 z " /></g></svg>
